HIERARCHY
ROOT hip
{
	OFFSET 0.000000 0.000000 0.000000 
	CHANNELS 6 Xposition Yposition Zposition Xrotation Zrotation Yrotation
	JOINT abdomen
	{
		OFFSET 0.000000 3.402643 0.000000 
		CHANNELS 3 Xrotation Zrotation Yrotation
		JOINT chest
		{
			OFFSET 0.000000 8.438565 -0.680529 
			CHANNELS 3 Xrotation Zrotation Yrotation
			JOINT neck
			{
				OFFSET 0.000000 10.207942 -0.272212 
				CHANNELS 3 Xrotation Zrotation Yrotation
				JOINT head
				{
					OFFSET 0.000000 3.130431 0.000000 
					CHANNELS 3 Xrotation Zrotation Yrotation
					End Site
					{
						OFFSET 0.000000 3.130435 0.000000 
					}
				}
			}
			JOINT lCollar
			{
				OFFSET 3.470700 6.669187 -0.816635 
				CHANNELS 3 Yrotation Zrotation Xrotation
				JOINT lShldr
				{
					OFFSET 3.198488 0.000000 0.000000 
					CHANNELS 3 Zrotation Yrotation Xrotation
					JOINT lForeArm
					{
						OFFSET 10.139888 0.000000 0.000000 
						CHANNELS 3 Yrotation Zrotation Xrotation
						JOINT lHand
						{
							OFFSET 8.370511 0.000000 0.000000 
							CHANNELS 3 Zrotation Yrotation Xrotation
							End Site
							{
								OFFSET 4.083176 0.000000 0.000000 
							}
						}
					}
				}
			}
			JOINT rCollar
			{
				OFFSET -3.470700 6.669187 -0.816635 
				CHANNELS 3 Yrotation Zrotation Xrotation
				JOINT rShldr
				{
					OFFSET -3.198488 0.000000 0.000000 
					CHANNELS 3 Zrotation Yrotation Xrotation
					JOINT rForeArm
					{
						OFFSET -10.139888 0.000000 0.000000 
						CHANNELS 3 Yrotation Zrotation Xrotation
						JOINT rHand
						{
							OFFSET -8.370511 0.000000 0.000000 
							CHANNELS 3 Zrotation Yrotation Xrotation
							End Site
							{
								OFFSET -4.083176 0.000000 0.000000 
							}
						}
					}
				}
			}
		}
	}
	JOINT lThigh
	{
		OFFSET 5.308129 -1.633274 1.361059 
		CHANNELS 3 Xrotation Zrotation Yrotation
		JOINT lShin
		{
			OFFSET -2.041588 -20.007561 0.000000 
			CHANNELS 3 Xrotation Zrotation Yrotation
			JOINT lFoot
			{
				OFFSET 0.000000 -19.190928 -1.224953 
				CHANNELS 3 Xrotation Yrotation Zrotation
				End Site
				{
					OFFSET 0.000000 -2.449906 4.627600 
				}
			}
		}
	}
	JOINT rThigh
	{
		OFFSET -5.308129 -1.633274 1.361059 
		CHANNELS 3 Xrotation Zrotation Yrotation
		JOINT rShin
		{
			OFFSET 2.041588 -20.007561 0.000000 
			CHANNELS 3 Xrotation Zrotation Yrotation
			JOINT rFoot
			{
				OFFSET 0.000000 -19.190928 -1.224953 
				CHANNELS 3 Xrotation Yrotation Zrotation
				End Site
				{
					OFFSET 0.000000 -2.449906 4.627600 
				}
			}
		}
	}
}
MOTION
Frames: 16
Frame Time: 0.033333
-15.256887 53.552986 41.544945 10.899780 -179.108170 4.974627 0.000000 0.000000 0.000000 -9.095744 4.879573 3.956447 -3.104870 -8.190156 -4.083807 -39.810223 7.912306 -14.275785 30.396719 12.720297 -11.634502 77.938736 -40.697922 -132.704117 -1.206766 -0.312101 -21.916513 91.069489 -15.198740 -21.762564 -31.726587 -18.663925 -13.144367 -68.367165 42.364719 -127.683777 0.001311 -1.516463 14.618338 -95.461220 -2.292766 -4.685771 -3.857747 16.083256 24.742018 103.918304 9.581449 29.866491 -3.341135 -0.103508 3.843653 -10.625593 -40.887299 -18.860371 93.554657 -7.272191 -7.269339 13.267310 0.818236 6.956744 
-15.402020 53.392033 41.835266 11.400515 -178.487457 5.651922 0.000000 0.000000 0.000000 -9.153909 4.049502 3.733051 -2.358584 -7.681933 -4.125970 -39.487133 7.421700 -13.335446 31.999140 11.903846 -11.513776 81.135841 -40.702740 -138.459061 -1.063349 0.247048 -18.865297 91.056732 -15.003817 -21.564688 -32.686588 -16.392721 -12.673417 -71.625618 42.432602 -132.444077 -0.029763 -2.272218 17.218365 -95.584946 -1.644283 -5.372355 -2.520349 15.943335 24.042688 102.701897 9.153960 27.493071 -2.517427 -0.051446 3.349412 -3.487789 -39.664673 -22.252029 92.850006 -7.369823 -7.632805 13.455474 0.846560 7.088209 
-15.527714 53.252724 42.182594 11.783360 -178.183609 6.193302 0.000000 0.000000 0.000000 -9.236310 3.518356 3.569344 -1.744853 -6.393874 -3.297739 -39.594173 6.134824 -11.336462 33.243916 11.407302 -11.513348 83.163811 -40.264523 -140.217911 -1.087095 0.194562 -19.362164 92.442566 -14.587653 -21.595636 -33.200111 -14.225353 -12.152539 -74.125076 42.118099 -135.389069 -0.039619 -2.766525 18.496973 -95.475410 -1.325285 -5.712079 -1.310986 16.145651 23.360016 102.382019 8.811049 24.467718 -1.648796 -0.012946 2.777793 2.556430 -37.789555 -24.695221 92.639450 -7.467034 -7.847637 13.243867 0.821954 7.008250 
-15.697312 53.132416 42.517086 11.782732 -178.279205 6.271835 0.000000 0.000000 0.000000 -9.518767 3.390282 3.494787 -2.127770 -5.007202 -1.829564 -37.898960 6.353939 -9.561695 34.541233 11.609619 -11.978810 83.880424 -39.791542 -140.133987 -1.222990 -0.096839 -22.129805 94.144119 -15.847871 -23.414673 -33.163250 -11.971259 -11.679157 -76.067909 41.561932 -137.614731 -0.043036 -3.154837 19.348656 -95.326424 -0.837821 -6.230682 -0.625508 16.463282 23.036823 103.054192 8.723251 22.672966 -1.139777 0.000599 2.484914 6.491848 -35.457039 -25.480534 92.994194 -7.730087 -8.590946 12.915255 0.761619 6.822544 
-15.887712 53.047855 42.838234 11.331748 -178.563705 6.079237 0.000000 0.000000 0.000000 -10.018887 3.500616 3.415726 -2.633656 -3.514373 -0.544216 -37.907135 6.080651 -7.943185 35.898273 11.951042 -12.753161 83.767998 -39.455139 -139.274445 -1.277384 -0.269755 -23.182816 93.726524 -15.764443 -23.185926 -32.780327 -9.658945 -11.315268 -77.842819 40.679745 -139.454803 -0.050359 -3.662495 20.675695 -94.340897 -0.469799 -6.568470 -0.459531 16.572235 23.010117 104.530479 8.966769 23.031839 -0.744033 -0.022112 2.315821 8.768376 -33.084740 -24.773958 93.715446 -7.827515 -7.826915 13.122757 0.815069 7.050185 
-16.114216 53.007587 43.185432 10.862951 -178.542206 6.126377 0.000000 0.000000 0.000000 -10.349942 3.352875 2.933431 -2.979165 -2.563809 -0.308772 -39.326935 6.133335 -7.238968 37.232895 12.455541 -13.432195 83.083282 -39.006256 -139.022293 -1.285330 -0.151654 -23.386955 93.893303 -15.363428 -22.834307 -32.296528 -7.417509 -10.815578 -79.462875 39.278107 -139.900269 -0.052149 -3.790197 20.536858 -94.152260 -0.351545 -6.678479 -0.548986 16.029476 22.924088 106.573174 9.463989 25.148359 0.094118 0.022696 2.075932 10.642878 -31.043528 -23.678190 94.598228 -8.032342 -7.247544 12.639992 0.773563 6.833374 
-16.382288 52.967308 43.573662 10.610426 -178.262619 6.109986 0.000000 0.000000 0.000000 -10.475679 3.217071 2.472292 -2.821915 -2.863778 0.100515 -40.877926 6.929546 -7.047899 38.562912 13.305533 -14.053611 82.040497 -39.042870 -141.586151 -1.143816 0.523708 -20.911001 93.071754 -14.814602 -22.007896 -31.454893 -5.860381 -10.349061 -80.677444 37.725937 -140.028137 -0.057215 -4.038098 20.591026 -93.839371 -0.187051 -6.835574 -0.334593 15.198221 23.236504 108.607162 9.970568 27.856760 1.846318 0.041710 1.572198 12.210423 -29.378731 -22.143053 94.933044 -8.295597 -6.991010 12.440832 0.732870 6.788579 
-16.655630 52.939880 43.973587 10.221269 -177.981735 5.749328 0.000000 0.000000 0.000000 -10.642561 3.272921 2.569370 -3.042202 -2.650182 1.005457 -41.642059 6.128592 -5.946309 40.031372 14.218448 -14.711405 80.081749 -39.081924 -140.739838 -1.187360 0.454681 -21.797474 92.303238 -14.361134 -21.315008 -30.277275 -4.665060 -10.095548 -81.198341 36.057888 -138.792923 -0.066975 -4.139197 20.198263 -93.374107 -0.297364 -6.698519 0.614931 14.599722 24.848814 110.903954 10.334685 28.743820 1.636101 0.040967 1.687363 12.660177 -28.031836 -20.393297 94.689850 -8.774114 -8.860346 12.169656 0.705028 6.507842 
-16.906815 52.958126 44.409256 9.509645 -177.707687 5.377746 0.000000 0.000000 0.000000 -10.981750 2.972008 2.255861 -3.466984 -1.770386 1.647599 -42.207108 5.242269 -4.245997 41.480900 15.891364 -15.864469 76.930489 -38.772469 -137.278687 -1.292640 0.209803 -24.058559 91.651772 -14.096882 -20.864452 -28.936195 -2.776713 -9.851248 -81.679497 34.506935 -136.727539 -0.055997 -3.829076 19.345911 -93.015541 -0.755995 -6.211812 1.219378 14.148610 26.224588 112.993263 10.486461 28.433649 1.140540 0.034389 1.875170 12.388330 -26.939262 -18.891888 94.131638 -9.116042 -10.373613 9.365710 0.398943 4.824866 
-17.085951 52.980900 44.869965 9.121553 -177.300156 5.396321 0.000000 0.000000 0.000000 -11.211411 2.433190 1.890935 -3.173735 -0.712638 1.873609 -42.784897 3.921977 -2.492699 42.441513 18.659079 -17.261436 73.305222 -39.217110 -137.437729 -1.212031 0.808796 -22.839520 90.920006 -13.789037 -20.337536 -27.582092 -1.757346 -9.833760 -81.643204 33.556561 -135.828384 -0.056634 -3.859001 19.355141 -92.895416 -0.974024 -5.974544 2.087739 13.815607 27.181162 115.230499 10.586597 27.160868 -0.737478 -0.006322 2.541735 11.998789 -25.856934 -17.921236 92.631981 -9.457631 -13.164263 8.299833 0.288532 4.039941 
-17.189974 52.884758 45.312431 9.379107 -176.897415 5.737492 0.000000 0.000000 0.000000 -11.089957 1.868762 1.450375 -2.036760 -0.222489 1.663676 -43.733665 3.395861 -1.771075 42.494694 22.418114 -18.593014 68.129654 -39.879478 -133.363480 -1.273682 0.803991 -24.085789 89.658745 -13.201457 -19.417366 -26.345922 -1.527176 -9.671520 -80.981491 32.989674 -134.422729 -0.056816 -3.811938 19.531574 -93.211998 -0.737994 -6.238659 2.782199 13.837211 27.181116 116.930397 10.624951 26.269094 -0.652373 -0.002622 2.479651 11.539934 -24.273670 -16.797350 90.121483 -9.838590 -15.418447 8.699163 0.279118 4.061451 
-17.160715 52.758289 45.748100 9.842494 -176.526382 5.794147 0.000000 0.000000 0.000000 -10.744724 1.237686 1.278882 -0.358959 -0.907012 1.174416 -46.197800 4.328259 -3.020511 42.279953 26.590540 -19.795250 61.639507 -39.832878 -124.851814 -1.488906 0.062886 -28.395668 88.783592 -12.502869 -18.528028 -24.722712 -1.377757 -9.399673 -79.789009 32.160507 -130.356995 -0.033710 -3.198317 17.924103 -94.377243 -0.344694 -6.703244 3.258362 14.116253 27.352219 118.610535 10.770950 26.205221 -0.635420 0.012201 2.443361 11.079908 -22.535221 -15.344076 87.903023 -9.438155 -13.335690 3.878136 0.051774 1.523202 
-16.955692 52.497158 46.149288 10.647528 -176.295181 6.139501 0.000000 0.000000 0.000000 -10.205413 0.461334 1.118123 0.484684 -1.125305 1.004716 -45.995617 4.808090 -3.444384 41.507423 30.000000 -21.136148 54.001320 -39.789898 -117.420898 -1.334785 -0.288101 -31.405764 87.479935 -12.341417 -18.043526 -22.608854 -1.816130 -9.067803 -78.089165 31.871572 -124.901665 0.025366 -2.281586 15.552749 -95.134399 0.101978 -7.222607 3.082584 14.800285 26.927784 120.299591 10.917507 26.536486 -0.251711 0.014451 2.294737 10.296548 -20.579451 -15.002142 84.259293 -9.076899 -14.087731 1.804566 -0.007739 0.277531 
-16.656450 52.070175 46.519012 12.206504 -176.095886 6.763535 0.000000 0.000000 0.000000 -9.287321 -0.385505 0.580617 1.758757 -1.829491 0.172828 -47.358498 6.201672 -5.423709 38.725224 30.000000 -22.177673 41.785641 -39.289459 -104.570602 -4.308500 -1.046322 -34.873402 86.779709 -11.554886 -17.133335 -19.977343 -2.163419 -8.306472 -77.803795 33.782635 -117.350296 0.119621 -0.612469 12.100083 -93.955475 1.165958 -8.220467 2.624417 15.298582 25.975084 121.669617 11.092413 27.426041 0.211178 0.012733 2.154840 9.742362 -19.106705 -15.410734 80.122284 -8.226484 -13.559278 1.464846 -0.008404 0.028118 
-16.233162 51.582912 46.839912 13.930635 -176.644409 6.462840 0.000000 0.000000 0.000000 -8.389581 -0.840519 0.192302 2.383620 -2.430584 -0.238618 -48.000690 8.215131 -8.136914 34.135216 30.000000 -23.561245 17.776543 -34.382168 -84.517349 -19.238472 -1.258832 -35.793983 88.014572 -7.697837 -13.859888 -15.546086 -0.913514 -7.224301 -78.399162 37.984814 -107.547302 0.169161 1.461469 11.302781 -95.410995 3.676133 -11.052199 1.804288 16.167700 25.348606 122.960327 11.033274 26.921167 0.519464 0.021567 1.999520 8.120945 -17.671164 -15.610179 76.267097 -6.947052 -12.334249 0.635386 0.003757 -0.457194 
-15.611689 51.137810 47.202843 15.420300 -177.947662 4.755979 0.000000 0.000000 0.000000 -8.606590 -1.525602 1.275716 3.171180 -1.894958 0.227003 -46.285133 9.226916 -9.564513 11.455733 30.000000 -16.499149 -12.806545 -16.238998 -62.050583 -34.521183 -2.416653 -33.463882 88.573776 -4.756207 -11.208071 -7.645427 3.663882 -6.999583 -77.427032 40.286827 -96.339310 0.252293 4.103064 7.553944 -102.386848 2.477082 -10.568757 0.729423 17.670593 25.459518 123.948853 10.856856 25.734518 1.638609 0.039960 1.406513 4.930943 -15.721951 -14.889394 73.088776 -5.521521 -10.498957 -0.555770 0.013094 -1.187830 
